HIERARCHY
ROOT Hips
{
  OFFSET -540.728 91.2436 1364.73
  CHANNELS 6 Xposition Yposition Zposition Zrotation Xrotation Yrotation
  JOINT Spine
  {
    OFFSET -8.72223e-05 8 0.000114026
    CHANNELS 6 Xposition Yposition Zposition Zrotation Xrotation Yrotation
    JOINT Spine1
    {
      OFFSET -0.00414102 7.99999 -0.00501267
      CHANNELS 6 Xposition Yposition Zposition Zrotation Xrotation Yrotation
      JOINT Spine2
      {
        OFFSET -0.000143782 8 4.63338e-05
        CHANNELS 6 Xposition Yposition Zposition Zrotation Xrotation Yrotation
        JOINT Spine3
        {
          OFFSET 0 8 0
          CHANNELS 6 Xposition Yposition Zposition Zrotation Xrotation Yrotation
          JOINT Neck
          {
            OFFSET -4.10084e-05 17 -5.01459e-05
            CHANNELS 6 Xposition Yposition Zposition Zrotation Xrotation Yrotation
            JOINT Head
            {
              OFFSET -0.00134195 10.8 -0.00387943
              CHANNELS 6 Xposition Yposition Zposition Zrotation Xrotation Yrotation
              End Site
              {
                OFFSET 0 20.25 0
              }
            }
          }
          JOINT LeftShoulder
          {
            OFFSET 4.99992 17 -0.000107755
            CHANNELS 6 Xposition Yposition Zposition Zrotation Xrotation Yrotation
            JOINT LeftShoulder2
            {
              OFFSET 6.45 0 0
              CHANNELS 6 Xposition Yposition Zposition Zrotation Xrotation Yrotation
              JOINT LeftArm
              {
                OFFSET 6.45014 -0.000207921 1.35877e-05
                CHANNELS 6 Xposition Yposition Zposition Zrotation Xrotation Yrotation
                JOINT LeftForeArm
                {
                  OFFSET -0.00319385 -32.4056 -1.99506
                  CHANNELS 6 Xposition Yposition Zposition Zrotation Xrotation Yrotation
                  JOINT LeftHand
                  {
                    OFFSET 0.000967441 -25.6498 2.00084
                    CHANNELS 6 Xposition Yposition Zposition Zrotation Xrotation Yrotation
                    JOINT LeftHandThumb1
                    {
                      OFFSET -0.492023 -1.49386 2.63742
                      CHANNELS 6 Xposition Yposition Zposition Zrotation Xrotation Yrotation
                      JOINT LeftHandThumb2
                      {
                        OFFSET -0.0030545 -3.79916 3.70602
                        CHANNELS 6 Xposition Yposition Zposition Zrotation Xrotation Yrotation
                        JOINT LeftHandThumb3
                        {
                          OFFSET -0.000115651 -3.00159 2.70086
                          CHANNELS 6 Xposition Yposition Zposition Zrotation Xrotation Yrotation
                          End Site
                          {
                            OFFSET 0.000109658 -2.30087 1.80021
                          }
                        }
                      }
                    }
                    JOINT LeftHandIndex
                    {
                      OFFSET 0.00140189 -1.90222 1.59753
                      CHANNELS 6 Xposition Yposition Zposition Zrotation Xrotation Yrotation
                      JOINT LeftHandIndex1
                      {
                        OFFSET 0.00011838 -8.30003 1.89982
                        CHANNELS 6 Xposition Yposition Zposition Zrotation Xrotation Yrotation
                        JOINT LeftHandIndex2
                        {
                          OFFSET -0.000765764 -4.4977 -0.00189711
                          CHANNELS 6 Xposition Yposition Zposition Zrotation Xrotation Yrotation
                          JOINT LeftHandIndex3
                          {
                            OFFSET 0.000274256 -3.40283 -0.000959189
                            CHANNELS 6 Xposition Yposition Zposition Zrotation Xrotation Yrotation
                            End Site
                            {
                              OFFSET -0.00235933 -2.59915 0.00132515
                            }
                          }
                        }
                      }
                    }
                    JOINT LeftHandMiddle
                    {
                      OFFSET -0.250085 -2.20001 0.399892
                      CHANNELS 6 Xposition Yposition Zposition Zrotation Xrotation Yrotation
                      JOINT LeftHandMiddle1
                      {
                        OFFSET -0.00034427 -8.29935 1.00047
                        CHANNELS 6 Xposition Yposition Zposition Zrotation Xrotation Yrotation
                        JOINT LeftHandMiddle2
                        {
                          OFFSET -0.000250934 -4.65042 -0.00178138
                          CHANNELS 6 Xposition Yposition Zposition Zrotation Xrotation Yrotation
                          JOINT LeftHandMiddle3
                          {
                            OFFSET -0.000956555 -3.29899 0.000378916
                            CHANNELS 6 Xposition Yposition Zposition Zrotation Xrotation Yrotation
                            End Site
                            {
                              OFFSET -0.000214876 -2.70066 -0.00168493
                            }
                          }
                        }
                      }
                    }
                    JOINT LeftHandRing
                    {
                      OFFSET -0.499222 -2.14941 -0.801196
                      CHANNELS 6 Xposition Yposition Zposition Zrotation Xrotation Yrotation
                      JOINT LeftHandRing1
                      {
                        OFFSET -0.00134552 -7.74456 -0.197429
                        CHANNELS 6 Xposition Yposition Zposition Zrotation Xrotation Yrotation
                        JOINT LeftHandRing2
                        {
                          OFFSET 0.000215873 -3.80038 -7.44867e-05
                          CHANNELS 6 Xposition Yposition Zposition Zrotation Xrotation Yrotation
                          JOINT LeftHandRing3
                          {
                            OFFSET -0.000884431 -3.4002 0.000193307
                            CHANNELS 6 Xposition Yposition Zposition Zrotation Xrotation Yrotation
                            End Site
                            {
                              OFFSET 0.00120245 -2.60012 -0.000694506
                            }
                          }
                        }
                      }
                    }
                    JOINT LeftHandPinky
                    {
                      OFFSET -0.749764 -1.75114 -1.85067
                      CHANNELS 6 Xposition Yposition Zposition Zrotation Xrotation Yrotation
                      JOINT LeftHandPinky1
                      {
                        OFFSET -0.000473758 -7.14999 -1.00036
                        CHANNELS 6 Xposition Yposition Zposition Zrotation Xrotation Yrotation
                        JOINT LeftHandPinky2
                        {
                          OFFSET -3.30761e-05 -2.99986 -0.000371366
                          CHANNELS 6 Xposition Yposition Zposition Zrotation Xrotation Yrotation
                          JOINT LeftHandPinky3
                          {
                            OFFSET 7.48229e-05 -2.34964 -0.000670343
                            CHANNELS 6 Xposition Yposition Zposition Zrotation Xrotation Yrotation
                            End Site
                            {
                              OFFSET 9.62298e-05 -2.09991 6.56443e-05
                            }
                          }
                        }
                      }
                    }
                  }
                }
              }
            }
          }
          JOINT RightShoulder
          {
            OFFSET -5 17 1.5926e-05
            CHANNELS 6 Xposition Yposition Zposition Zrotation Xrotation Yrotation
            JOINT RightShoulder2
            {
              OFFSET -6.45 0 0
              CHANNELS 6 Xposition Yposition Zposition Zrotation Xrotation Yrotation
              JOINT RightArm
              {
                OFFSET -6.44998 0.000131879 0.000192844
                CHANNELS 6 Xposition Yposition Zposition Zrotation Xrotation Yrotation
                JOINT RightForeArm
                {
                  OFFSET -0.00101386 -32.3993 -2.00015
                  CHANNELS 6 Xposition Yposition Zposition Zrotation Xrotation Yrotation
                  JOINT RightHand
                  {
                    OFFSET 0.00130041 -25.646 2.00562
                    CHANNELS 6 Xposition Yposition Zposition Zrotation Xrotation Yrotation
                    JOINT RightHandThumb1
                    {
                      OFFSET 0.496737 -1.49794 2.65432
                      CHANNELS 6 Xposition Yposition Zposition Zrotation Xrotation Yrotation
                      JOINT RightHandThumb2
                      {
                        OFFSET 0.000497799 -3.79808 3.70333
                        CHANNELS 6 Xposition Yposition Zposition Zrotation Xrotation Yrotation
                        JOINT RightHandThumb3
                        {
                          OFFSET 0.0113108 -2.99824 2.68246
                          CHANNELS 6 Xposition Yposition Zposition Zrotation Xrotation Yrotation
                          End Site
                          {
                            OFFSET -0.00334688 -2.2946 1.80192
                          }
                        }
                      }
                    }
                    JOINT RightHandIndex
                    {
                      OFFSET -0.000407384 -1.89979 1.60037
                      CHANNELS 6 Xposition Yposition Zposition Zrotation Xrotation Yrotation
                      JOINT RightHandIndex1
                      {
                        OFFSET -0.00033561 -8.30004 1.9003
                        CHANNELS 6 Xposition Yposition Zposition Zrotation Xrotation Yrotation
                        JOINT RightHandIndex2
                        {
                          OFFSET -0.00200532 -4.50011 9.29422e-05
                          CHANNELS 6 Xposition Yposition Zposition Zrotation Xrotation Yrotation
                          JOINT RightHandIndex3
                          {
                            OFFSET -0.000333461 -3.40006 6.17037e-05
                            CHANNELS 6 Xposition Yposition Zposition Zrotation Xrotation Yrotation
                            End Site
                            {
                              OFFSET 0.00188872 -2.60409 0.00345593
                            }
                          }
                        }
                      }
                    }
                    JOINT RightHandMiddle
                    {
                      OFFSET 0.250802 -2.19932 0.399143
                      CHANNELS 6 Xposition Yposition Zposition Zrotation Xrotation Yrotation
                      JOINT RightHandMiddle1
                      {
                        OFFSET 0.000449203 -8.30012 0.999427
                        CHANNELS 6 Xposition Yposition Zposition Zrotation Xrotation Yrotation
                        JOINT RightHandMiddle2
                        {
                          OFFSET 0.000417922 -4.6502 0.000285928
                          CHANNELS 6 Xposition Yposition Zposition Zrotation Xrotation Yrotation
                          JOINT RightHandMiddle3
                          {
                            OFFSET -6.19369e-05 -3.29998 4.83735e-05
                            CHANNELS 6 Xposition Yposition Zposition Zrotation Xrotation Yrotation
                            End Site
                            {
                              OFFSET -0.00646569 -2.69699 0.00576678
                            }
                          }
                        }
                      }
                    }
                    JOINT RightHandRing
                    {
                      OFFSET 0.493646 -2.14605 -0.791522
                      CHANNELS 6 Xposition Yposition Zposition Zrotation Xrotation Yrotation
                      JOINT RightHandRing1
                      {
                        OFFSET 0.000568701 -7.74868 -0.200237
                        CHANNELS 6 Xposition Yposition Zposition Zrotation Xrotation Yrotation
                        JOINT RightHandRing2
                        {
                          OFFSET -8.93885e-05 -3.80027 -0.000426688
                          CHANNELS 6 Xposition Yposition Zposition Zrotation Xrotation Yrotation
                          JOINT RightHandRing3
                          {
                            OFFSET 0.000571382 -3.3998 -0.000557698
                            CHANNELS 6 Xposition Yposition Zposition Zrotation Xrotation Yrotation
                            End Site
                            {
                              OFFSET -0.00241778 -2.59943 0.00228157
                            }
                          }
                        }
                      }
                    }
                    JOINT RightHandPinky
                    {
                      OFFSET 0.751052 -1.74719 -1.85057
                      CHANNELS 6 Xposition Yposition Zposition Zrotation Xrotation Yrotation
                      JOINT RightHandPinky1
                      {
                        OFFSET -0.000344349 -7.15119 -0.999735
                        CHANNELS 6 Xposition Yposition Zposition Zrotation Xrotation Yrotation
                        JOINT RightHandPinky2
                        {
                          OFFSET 0.00252542 -2.99974 -0.000598671
                          CHANNELS 6 Xposition Yposition Zposition Zrotation Xrotation Yrotation
                          JOINT RightHandPinky3
                          {
                            OFFSET 0.00219827 -2.34777 -0.00303139
                            CHANNELS 6 Xposition Yposition Zposition Zrotation Xrotation Yrotation
                            End Site
                            {
                              OFFSET 0.00299516 -2.09248 0.0027571
                            }
                          }
                        }
                      }
                    }
                  }
                }
              }
            }
          }
        }
      }
    }
  }
  JOINT LeftUpLeg
  {
    OFFSET 7.99998 0 1.05715e-05
    CHANNELS 6 Xposition Yposition Zposition Zrotation Xrotation Yrotation
    JOINT LeftLeg
    {
      OFFSET 7.49574e-05 -45 -1
      CHANNELS 6 Xposition Yposition Zposition Zrotation Xrotation Yrotation
      JOINT LeftFoot
      {
        OFFSET -6.04815e-05 -40.9999 -1.99986
        CHANNELS 6 Xposition Yposition Zposition Zrotation Xrotation Yrotation
        JOINT LeftToeBase
        {
          OFFSET 0.000869958 -7.49995 12.5011
          CHANNELS 6 Xposition Yposition Zposition Zrotation Xrotation Yrotation
          JOINT LeftFootToe
          {
            OFFSET 0 0 4
            CHANNELS 6 Xposition Yposition Zposition Zrotation Xrotation Yrotation
            End Site
            {
              OFFSET 0 0 0
            }
          }
        }
      }
    }
  }
  JOINT RightUpLeg
  {
    OFFSET -7.99998 0 -1.05715e-05
    CHANNELS 6 Xposition Yposition Zposition Zrotation Xrotation Yrotation
    JOINT RightLeg
    {
      OFFSET 0.00181976 -44.9993 -1.00341
      CHANNELS 6 Xposition Yposition Zposition Zrotation Xrotation Yrotation
      JOINT RightFoot
      {
        OFFSET -9.01307e-05 -41.0001 -1.99944
        CHANNELS 6 Xposition Yposition Zposition Zrotation Xrotation Yrotation
        JOINT RightToeBase
        {
          OFFSET 0.00165456 -7.49981 12.501
          CHANNELS 6 Xposition Yposition Zposition Zrotation Xrotation Yrotation
          JOINT RightFootToe
          {
            OFFSET 0 0 4
            CHANNELS 6 Xposition Yposition Zposition Zrotation Xrotation Yrotation
            End Site
            {
              OFFSET 0 0 0
            }
          }
        }
      }
    }
  }
}
MOTION
Frames:	3
Frame Time:	0.0111111
-560.365 92.6528 1372.18 -2.71956 -3.87898 -135.536 0 8 2.27374e-13 -12.9892 6.34639 9.74823 0 8 -1.7053e-13 -0.233616 1.00988 3.87819 0 8 1.7053e-13 -0.109522 0.50706 1.93916 0 8 0 -0.110212 0.506155 1.93952 0 17 -1.13687e-13 -0.623149 1.43619 13.9008 4.54747e-13 10.8 -5.68434e-14 1.90958 -2.0394 32.8329 5 17 -1.13687e-13 -9.24319 3.82599 -7.2265 6.45 0 1.13687e-13 -1.85971 0.818069 -2.00051 6.45 -1.13687e-13 -1.13687e-13 51.0451 -24.4463 76.3065 1.13687e-13 -32.4 -2 -66.316 -41.2266 -28.7664 0 -25.65 2 8.22251 24.868 28.7453 -0.5 -1.5 2.65 -14.8596 -20.8941 -0.656895 0 -3.8 3.7 11.7681 23.0342 4.07089 0 -3 2.7 -0.030666 45.8213 0.0748991 2.27374e-13 -1.9 1.6 1.54578e-07 -1.97889e-06 2.44519e-06 0 -8.3 1.9 -11.2022 24.4186 2.94943 2.27374e-13 -4.5 -2.27374e-13 -13.1348 -0.0303228 0.0758284 0 -3.4 0 -10.9822 -0.0325772 0.0519974 -0.25 -2.2 0.4 1.54578e-07 -1.97889e-06 2.44519e-06 2.27374e-13 -8.3 1 -33.055 32.9691 12.4557 1.13687e-13 -4.65 2.27374e-13 -89.9957 0.0116807 -0.00130033 0 -3.3 4.54747e-13 -90.0002 -4.56505e-05 -4.70472e-05 -0.5 -2.15 -0.8 1.54578e-07 -1.97889e-06 2.44519e-06 -1.13687e-13 -7.75 -0.2 -44.4594 20.2309 10.7012 0 -3.8 2.27374e-13 -58.2377 0.0931786 -0.0238007 -1.13687e-13 -3.4 0 -85.5794 -0.00592522 0.0245781 -0.75 -1.75 -1.85 1.54578e-07 -1.97889e-06 2.44519e-06 -1.13687e-13 -7.15 -1 -79.4809 8.95595 16.9116 -1.7053e-13 -3 0 -37.053 0.00582774 0.0249588 0 -2.35 0 -26.2533 -0.0113712 0.0145966 -5 17 -5.68434e-14 4.2001 7.67003 4.1093 -6.45 -1.42109e-13 -1.7053e-13 -0.224423 -0.263344 -2.65004 -6.45 -2.84217e-14 -1.7053e-13 -69.5414 32.5183 -0.226029 5.68434e-14 -32.4 -2 23.2645 -21.3225 9.49055 0 -25.65 2 -8.24325 -25.1823 4.34207 0.5 -1.5 2.65 -0.48345 27.5281 -121.951 -2.27374e-13 -3.8 3.7 -22.8123 42.2202 2.27533 0 -3 2.7 -0.12141 49.8589 0.0374464 1.13687e-13 -1.9 1.6 7.7992e-07 9.14049e-06 -1.03559e-05 1.13687e-13 -8.3 1.9 21.1444 0.556847 -0.265691 0 -4.5 0 7.04708 1.51807 0.0107774 4.54747e-13 -3.4 0 6.66814 0.0140031 0.00522373 0.25 -2.2 0.4 7.7992e-07 9.14049e-06 -1.03559e-05 -1.13687e-13 -8.3 1 12.9434 3.46398 -0.576253 -1.13687e-13 -4.65 5.68434e-14 48.407 37.4425 6.18529 0 -3.3 -2.84217e-14 48.1103 0.00859202 -0.0240885 0.5 -2.15 -0.8 7.7992e-07 9.14049e-06 -1.03559e-05 1.13687e-13 -7.75 -0.2 31.4645 13.0766 -4.89636 4.54747e-13 -3.8 5.68434e-14 22.53 38.1958 15.3727 2.27374e-13 -3.4 0 46.7945 0.00294637 -0.0245127 0.75 -1.75 -1.85 7.7992e-07 9.14049e-06 -1.03559e-05 1.13687e-13 -7.15 -1 49.5957 19.5392 -12.6536 2.27374e-13 -3 5.68434e-14 26.2045 18.8719 2.00108 0 -2.35 8.52651e-14 26.9686 0.0140358 -0.00415735 8 -1.42109e-14 0 16.4629 -17.4399 23.5443 0 -45 -1 -26.3535 23.8419 14.1893 0 -41 -2 13.0447 -4.14951 -26.4594 -4.54747e-13 -7.5 12.5 1.67448e-06 5.39305e-06 0.000463465 0 7.10543e-15 4 -3.13819 -2.4598 27.1976 -8 -1.42109e-14 0 -16.8339 -10.9196 15.2318 -2.27374e-13 -45 -1 -2.171 -1.37282 2.71887 0 -41 -2 22.1646 7.72015 -31.2609 0 -7.5 12.5 0.0255549 -0.0227189 0.0177234 0 0 4 -9.97944 -0.853852 49.2852 
-560.386 92.6571 1372.22 -2.69666 -3.85349 -135.664 0 8 1.13687e-13 -12.9682 6.39807 9.79944 0 8 -5.68434e-14 -0.242286 1.02961 3.9035 2.27374e-13 8 5.68434e-14 -0.111984 0.517022 1.95179 2.27374e-13 8 0 -0.111515 0.516801 1.95061 0 17 -5.68434e-14 -0.602716 1.39583 13.9177 4.54747e-13 10.8 0 1.86857 -2.03562 32.8733 5 17 1.13687e-13 -9.23507 3.77854 -7.14993 6.45 0 5.68434e-14 -1.85872 0.813898 -1.99471 6.45 0 -5.68434e-14 51.1148 -24.2137 76.4163 0 -32.4 -2 -66.8194 -41.4746 -29.5142 -2.27374e-13 -25.65 2 9.50221 25.1328 28.0509 -0.5 -1.5 2.65 -15.0197 -20.849 -0.534824 -1.13687e-13 -3.8 3.7 11.5183 22.6824 4.09727 1.13687e-13 -3 2.7 -0.0308105 46.6979 0.0683721 1.13687e-13 -1.9 1.6 1.54578e-07 -1.97889e-06 2.44519e-06 1.13687e-13 -8.3 1.9 -10.6896 23.9676 2.77451 1.13687e-13 -4.5 0 -11.297 -0.0259791 0.0656504 0 -3.4 0 -9.65049 -0.0280926 0.0486001 -0.25 -2.2 0.4 1.54578e-07 -1.97889e-06 2.44519e-06 4.54747e-13 -8.3 1 -31.0643 32.8581 11.6716 0 -4.65 0 -90.0029 0.0116807 -0.00130033 -1.13687e-13 -3.3 2.27374e-13 -90.0002 -4.56505e-05 -4.70472e-05 -0.5 -2.15 -0.8 1.54578e-07 -1.97889e-06 2.44519e-06 -1.13687e-13 -7.75 -0.2 -42.0029 20.2693 10.0359 0 -3.8 0 -61.3373 0.0948405 -0.0238007 -2.27374e-13 -3.4 -4.54747e-13 -86.5243 -0.00592522 0.024258 -0.75 -1.75 -1.85 1.54578e-07 -1.97889e-06 2.44519e-06 -3.41061e-13 -7.15 -1 -78.1916 9.51307 16.7714 -1.13687e-13 -3 0 -38.2828 0.00582774 0.0228437 1.13687e-13 -2.35 0 -26.9958 -0.0113712 0.0127229 -5 17 -1.13687e-13 4.2235 7.60913 4.17865 -6.45 -8.52651e-14 -2.84217e-13 -0.220487 -0.267575 -2.66394 -6.45 2.84217e-14 -1.13687e-13 -69.9393 32.4575 0.0861723 -5.68434e-14 -32.4 -2 23.8086 -21.3896 10.0659 -1.13687e-13 -25.65 2 -8.71228 -25.5734 4.31496 0.5 -1.5 2.65 -0.0546238 27.9604 -122.729 -1.13687e-13 -3.8 3.7 -22.5981 42.0834 2.16691 -2.27374e-13 -3 2.7 -0.119857 49.8589 0.0374464 0 -1.9 1.6 7.7992e-07 9.14049e-06 -1.03559e-05 0 -8.3 1.9 20.9242 0.467065 -0.244742 2.27374e-13 -4.5 5.68434e-14 7.57108 1.63084 0.0105719 4.54747e-13 -3.4 0 7.12037 0.0140031 0.00309493 0.25 -2.2 0.4 7.7992e-07 9.14049e-06 -1.03559e-05 -1.13687e-13 -8.3 1 12.7424 3.48485 -0.574934 0 -4.65 5.68434e-14 48.51 38.1708 6.4911 0 -3.3 0 48.7398 0.00630087 -0.0290314 0.5 -2.15 -0.8 7.7992e-07 9.14049e-06 -1.03559e-05 -1.13687e-13 -7.75 -0.2 30.7551 13.1719 -4.81429 2.27374e-13 -3.8 0 22.2703 38.7479 16.032 4.54747e-13 -3.4 2.84217e-14 47.597 0.000937627 -0.0298216 0.75 -1.75 -1.85 7.7992e-07 9.14049e-06 -1.03559e-05 0 -7.15 -1 49.4124 19.8003 -12.7371 0 -3 0 26.2782 18.947 2.0155 0 -2.35 0 27.0443 0.0120047 -0.00572277 8 0 1.13687e-13 16.4874 -17.4506 23.5092 2.27374e-13 -45 -1 -26.3666 23.8533 14.2013 0 -41 -2 13.0504 -4.17482 -26.4653 -2.27374e-13 -7.5 12.5 1.67448e-06 5.39305e-06 0.000463465 2.27374e-13 0 4 -3.1895 -2.49521 27.1274 -8 -1.42109e-14 -1.13687e-13 -16.8007 -10.9739 15.1673 0 -45 -1 -2.18062 -1.3793 2.81686 0 -41 -2 22.1656 7.74358 -31.3143 2.27374e-13 -7.5 12.5 0.0255549 -0.0227189 0.0177234 0 -1.42109e-14 4 -9.92461 -0.906357 49.2141 
-560.403 92.6594 1372.26 -2.66978 -3.82649 -135.783 0 8 1.13687e-13 -12.9479 6.45432 9.84685 0 8 -1.13687e-13 -0.253917 1.05166 3.92683 0 8 1.13687e-13 -0.117352 0.528161 1.96343 0 8 1.7053e-13 -0.118159 0.528282 1.96289 0 17 -5.68434e-14 -0.57421 1.34471 13.9279 2.27374e-13 10.8 0 1.83972 -2.03525 32.8984 5 17 1.13687e-13 -9.20928 3.72433 -7.07166 6.45 -5.68434e-14 5.68434e-14 -1.85742 0.811981 -1.99414 6.45 -1.13687e-13 -1.13687e-13 51.1751 -23.9894 76.5441 2.27374e-13 -32.4 -2 -67.2998 -41.6985 -30.2064 0 -25.65 2 10.6348 25.3523 27.4353 -0.5 -1.5 2.65 -14.9759 -21.0918 -0.406717 -1.13687e-13 -3.8 3.7 11.3377 22.4273 4.11569 1.13687e-13 -3 2.7 -0.0327142 47.5372 0.0622567 2.27374e-13 -1.9 1.6 1.54578e-07 -1.97889e-06 2.44519e-06 -1.13687e-13 -8.3 1.9 -10.2564 23.5537 2.62641 2.27374e-13 -4.5 -2.27374e-13 -9.79775 -0.0218627 0.0595707 1.13687e-13 -3.4 0 -8.49916 -0.0239863 0.0454683 -0.25 -2.2 0.4 1.54578e-07 -1.97889e-06 2.44519e-06 2.27374e-13 -8.3 1 -29.1481 32.6106 10.8764 0 -4.65 0 -90.0042 0.0116807 -0.00130033 -1.13687e-13 -3.3 0 -90.0002 -4.56505e-05 -4.70472e-05 -0.5 -2.15 -0.8 1.54578e-07 -1.97889e-06 2.44519e-06 0 -7.75 -0.2 -39.247 20.2953 9.29381 0 -3.8 0 -64.103 0.0931806 -0.0238007 -1.13687e-13 -3.4 -4.54747e-13 -87.3137 -0.00592522 0.023386 -0.75 -1.75 -1.85 1.54578e-07 -1.97889e-06 2.44519e-06 -3.41061e-13 -7.15 -1 -76.6473 10.1451 16.5791 -1.13687e-13 -3 0 -39.4202 0.00582774 0.0227275 0 -2.35 0 -27.6902 -0.0113712 0.0116318 -5 17 0 4.25746 7.53089 4.2462 -6.45 -5.68434e-14 -1.13687e-13 -0.216348 -0.270218 -2.68104 -6.45 0 0 -70.3499 32.3682 0.419914 5.68434e-14 -32.4 -2 24.3567 -21.4745 10.6135 1.13687e-13 -25.65 2 -9.18891 -25.9638 4.2571 0.5 -1.5 2.65 0.38406 28.4046 -123.476 -1.13687e-13 -3.8 3.7 -22.354 41.9238 2.04389 0 -3 2.7 -0.118046 49.8589 0.0374464 0 -1.9 1.6 7.7992e-07 9.14049e-06 -1.03559e-05 1.13687e-13 -8.3 1.9 20.696 0.405485 -0.228297 -2.27374e-13 -4.5 5.68434e-14 8.09711 1.74435 0.00997769 4.54747e-13 -3.4 0 7.56934 0.0140031 0.000959392 0.25 -2.2 0.4 7.7992e-07 9.14049e-06 -1.03559e-05 0 -8.3 1 12.6912 3.51223 -0.580267 -1.13687e-13 -4.65 0 48.6014 38.9861 6.84605 0 -3.3 -5.68434e-14 49.4475 0.00410477 -0.0329723 0.5 -2.15 -0.8 7.7992e-07 9.14049e-06 -1.03559e-05 1.13687e-13 -7.75 -0.2 30.0991 13.2292 -4.73053 2.27374e-13 -3.8 0 21.9562 39.3452 16.7776 0 -3.4 2.84217e-14 48.4915 -0.000503214 -0.036081 0.75 -1.75 -1.85 7.7992e-07 9.14049e-06 -1.03559e-05 0 -7.15 -1 49.0587 20.053 -12.7585 2.27374e-13 -3 -5.68434e-14 26.4326 19.1001 2.0459 0 -2.35 0 27.1986 0.0100593 -0.00709129 8 -1.42109e-14 0 16.5191 -17.4641 23.4838 -2.27374e-13 -45 -1 -26.3822 23.8662 14.2106 0 -41 -2 13.0601 -4.19626 -26.4662 0 -7.5 12.5 1.67448e-06 5.39305e-06 0.000463465 0 0 4 -3.23794 -2.53389 27.0639 -8 -2.84217e-14 -2.27374e-13 -16.7661 -11.0322 15.1129 0 -45 -1 -2.18408 -1.37634 2.91177 0 -41 -2 22.1639 7.7607 -31.3579 -2.27374e-13 -7.5 12.5 0.0255549 -0.0227189 0.0177234 0 0 4 -9.86942 -0.952722 49.1098 
